<svg xmlns="http://www.w3.org/2000/svg" width="401" height="389" viewBox="0 0 401 389" fill="none"><path d="M394.692 449.345C403.948 429.541 415.317 406.253 429.46 383.693C434.313 375.959 439.981 368.403 445.468 361.096C452.006 352.381 458.773 343.373 464.115 334.088C477.35 311.088 482.758 286.055 487.992 261.845C492.351 241.675 496.858 220.822 505.857 201.103C516.087 178.7 531.779 158.562 546.955 139.091C559.086 123.525 571.631 107.433 581.303 90.2856C595.395 65.3012 604.807 38.6689 613.915 12.9219C620.721 -6.32153 627.756 -26.2241 636.699 -45.3415L637.778 -45.0672C628.862 -26.0232 621.843 -6.15449 615.045 13.0581C605.922 38.8625 596.485 65.55 582.327 90.6596C572.599 107.911 560.015 124.055 547.843 139.667C532.726 159.063 517.084 179.124 506.939 201.359C497.998 220.937 493.512 241.72 489.16 261.817C483.908 286.126 478.471 311.269 465.122 334.477C459.731 343.848 452.939 352.902 446.372 361.648C440.906 368.932 435.253 376.463 430.438 384.136C416.333 406.621 404.988 429.858 395.76 449.621L394.681 449.347L394.691 449.349L394.692 449.345Z" fill="white"></path><path d="M374.045 451.493C378.037 441.949 381.845 432.141 385.534 422.658C392.558 404.579 399.825 385.891 408.712 367.98C412.973 359.397 417.812 350.335 424.319 342.249C427.409 338.404 431.039 335.18 434.556 332.061C437.311 329.612 440.162 327.087 442.699 324.295C457.343 308.184 463.065 285.248 468.116 265.004C468.729 262.556 469.319 260.169 469.918 257.855C471.05 253.464 472.164 248.965 473.25 244.62C478.293 224.28 483.512 203.253 492.942 183.23C503.061 161.731 519.106 143.307 534.616 125.493C547.558 110.633 560.944 95.2622 570.813 78.193C584.582 54.3808 592.043 28.8826 599.259 4.22372C604.798 -14.7266 610.534 -34.3206 619.092 -53.0938L620.178 -52.8375C611.658 -34.1588 605.94 -14.6167 600.416 4.28996C593.177 29.0328 585.692 54.6192 571.836 78.58C561.884 95.7891 548.451 111.219 535.457 126.137C520.014 143.868 504.05 162.204 494.019 183.508C484.657 203.402 479.451 224.365 474.425 244.634C473.346 248.986 472.228 253.483 471.096 257.884C470.499 260.194 469.904 262.58 469.293 265.023C464.198 285.435 458.424 308.566 443.515 324.971C440.918 327.829 438.036 330.389 435.243 332.866C431.785 335.934 428.212 339.11 425.206 342.848C418.799 350.812 414.007 359.781 409.791 368.286C400.936 386.139 393.684 404.793 386.668 422.841C382.981 432.334 379.163 442.14 375.171 451.707L374.063 451.487L374.054 451.485L374.045 451.493Z" fill="white"></path><path d="M352.515 455.264C358.871 438.509 364.164 421.355 369.286 404.773C374.308 388.514 379.496 371.707 385.682 355.27C389.204 345.92 394.016 333.116 402.441 323.612C406.319 319.236 410.469 317.039 414.862 314.716C417.427 313.356 420.074 311.964 422.683 310.073C441.102 296.766 448.514 268.871 453.924 248.504C454.639 245.794 455.322 243.237 455.994 240.827C457.547 235.271 459.044 229.566 460.498 224.048C465.868 203.611 471.415 182.487 481.285 162.512C491.447 141.938 507.964 125.537 523.936 109.667C537.356 96.3405 551.23 82.5558 561.265 66.3671C575.607 43.2224 581.008 18.1332 586.22 -6.13019C590.169 -24.4972 594.248 -43.4826 602.182 -61.6399L603.292 -61.4034C595.422 -43.3863 591.347 -24.4562 587.42 -6.15942C582.181 18.2199 576.758 43.4262 562.28 66.7929C552.144 83.1462 538.195 96.9933 524.713 110.39C508.837 126.16 492.426 142.463 482.379 162.796C472.575 182.636 467.043 203.693 461.697 224.056C460.241 229.578 458.74 235.292 457.189 240.853C456.519 243.258 455.84 245.808 455.118 248.511C449.64 269.106 442.15 297.298 423.254 310.955C420.556 312.904 417.851 314.335 415.238 315.721C410.981 317.972 406.961 320.096 403.285 324.243C395.061 333.52 390.296 346.176 386.819 355.414C380.645 371.812 375.461 388.601 370.455 404.835C365.325 421.444 360.027 438.611 353.661 455.41L352.527 455.238L352.519 455.255L352.515 455.264Z" fill="white"></path><path d="M330.981 457.93C338.927 435.889 344.674 413.426 350.232 391.696C354.924 373.355 359.773 354.392 365.927 335.762L366.097 335.25C369.494 324.969 373.338 313.319 381.325 304.657C386.68 298.852 391.413 297.784 396.43 296.65C399.436 295.971 402.548 295.265 406.099 293.517C425.787 283.833 433.972 254.678 439.388 235.386C439.969 233.299 440.525 231.325 441.059 229.5C443.313 221.787 445.369 213.801 447.356 206.068C452.748 185.127 458.323 163.476 468.671 143.256C478.874 123.323 495.774 108.885 512.119 94.9247C525.526 83.477 539.388 71.6361 549.506 56.8096C565.112 33.9353 568.628 8.84827 572.026 -15.419C574.551 -33.4403 577.164 -52.081 584.672 -69.8504L585.802 -69.6389C578.362 -52.0282 575.763 -33.4781 573.25 -15.5388C569.831 8.87876 566.293 34.1257 550.487 57.2922C540.242 72.3057 526.29 84.2197 512.796 95.7416C496.574 109.594 479.805 123.916 469.744 143.572C459.468 163.653 453.914 185.225 448.54 206.094C446.55 213.831 444.485 221.838 442.228 229.57C441.696 231.39 441.144 233.366 440.556 235.446C435.064 255.008 426.768 284.556 406.408 294.573C402.692 296.4 399.498 297.125 396.404 297.826C391.427 298.95 387.132 299.927 382.128 305.348C374.376 313.744 370.585 325.233 367.238 335.37L367.068 335.881C360.933 354.469 356.084 373.409 351.398 391.727C345.834 413.48 340.076 435.978 332.109 458.08L330.952 457.937L330.981 457.92L330.981 457.93Z" fill="white"></path><path d="M309.403 456.754C319.179 430.069 325.59 402.972 331.792 376.777C336.284 357.784 340.934 338.15 346.832 318.776C347.075 317.971 347.336 317.127 347.592 316.258C350.888 305.241 355.413 290.152 365.435 282.369C371.499 277.652 376.849 278.13 382.017 278.585C385.493 278.893 389.083 279.213 392.957 278.011C412.846 271.82 420.762 240.823 425.485 222.308C425.986 220.332 426.456 218.505 426.896 216.878C429.125 208.619 431.057 199.994 432.925 191.656C437.499 171.264 442.23 150.184 451.889 130.553C461.8 110.415 479.213 97.0216 496.049 84.069C510.076 73.277 524.579 62.1194 534.728 47.0918C549.826 24.7285 552.033 0.880582 554.17 -22.1873C555.838 -40.1822 557.559 -58.7865 565.298 -76.8657L566.431 -76.6498C558.779 -58.7719 557.065 -40.2647 555.412 -22.37C553.268 0.861105 551.044 24.884 535.73 47.5599C525.433 62.8077 510.818 74.0522 496.681 84.9364C479.995 97.7778 462.742 111.048 453.003 130.844C443.416 150.318 438.71 171.319 434.151 191.635C432.277 199.985 430.337 208.618 428.108 216.91C427.67 218.532 427.209 220.352 426.701 222.321C421.889 241.155 413.845 272.684 393.087 279.143C388.95 280.43 385.234 280.1 381.636 279.783C376.506 279.327 371.657 278.894 366.074 283.233C356.476 290.691 352.039 305.508 348.791 316.329C348.526 317.205 348.277 318.047 348.033 318.857C342.149 338.187 337.507 357.804 333.013 376.778C326.806 403.018 320.384 430.151 310.577 456.913L309.418 456.767L309.42 456.762L309.403 456.754Z" fill="white"></path><path d="M287.358 451.512C295.702 428.78 300.279 405.584 304.713 383.146C309.34 359.74 314.117 335.535 323.171 311.832C328.58 297.667 335.759 281.892 347.877 272.285C354.874 266.743 360.759 266.205 366.986 265.638C370.637 265.303 374.412 264.959 378.516 263.532C396.914 257.125 403.507 229.129 407.45 212.405C407.847 210.726 408.212 209.162 408.569 207.742C410.485 200.008 412.083 191.908 413.631 184.079C417.329 165.376 421.159 146.03 429.716 128.063C439.369 107.802 456.92 93.8585 473.9 80.3763C487.814 69.3298 502.202 57.8985 512.227 43.024C527.352 20.5792 529.459 -3.3456 531.506 -26.4882C533.097 -44.5916 534.75 -63.3075 542.526 -81.4976L543.66 -81.2817C535.977 -63.2961 534.332 -44.6773 532.744 -26.672C530.69 -3.36616 528.566 20.7337 513.228 43.4964C503.059 58.5826 488.562 70.0923 474.547 81.2236C457.714 94.5892 440.313 108.407 430.824 128.334C422.348 146.136 418.534 165.401 414.847 184.022C413.29 191.872 411.693 199.982 409.767 207.747C409.415 209.168 409.052 210.728 408.654 212.397C404.642 229.435 397.921 257.948 378.672 264.651C374.4 266.138 370.543 266.492 366.815 266.833C360.809 267.385 355.136 267.906 348.518 273.145C336.711 282.495 329.659 298.036 324.324 312.005C315.305 335.598 310.536 359.749 305.924 383.102C301.482 405.59 296.898 428.836 288.512 451.671L287.352 451.525L287.358 451.512Z" fill="white"></path><path d="M263.675 446.376C270.654 426.479 273.194 406.238 275.64 386.658C278.726 362 281.923 336.496 294.04 311.533C301.521 296.117 310.942 283.327 322.033 273.517C331.255 265.367 338.79 262.744 347.512 259.708C350.367 258.716 353.311 257.687 356.537 256.399C374.436 249.255 380.509 225.11 384.535 209.129C384.756 208.257 384.961 207.409 385.18 206.588C386.997 199.478 388.513 192.063 389.988 184.888C393.432 168.122 396.993 150.789 404.657 134.562C414.349 114.051 431.678 98.669 448.436 83.791C461.767 71.955 475.559 59.717 485.44 44.9515C501.152 21.4708 503.419 -3.53238 505.598 -27.7169C507.275 -46.2684 509.01 -65.4476 516.716 -84.0867L517.859 -83.8878C510.234 -65.4373 508.508 -46.3553 506.836 -27.8967C504.634 -3.54775 502.357 21.6274 486.433 45.4219C476.433 60.3672 462.566 72.6774 449.15 84.5834C432.517 99.3488 415.32 114.615 405.765 134.838C398.172 150.911 394.626 168.163 391.199 184.848C389.723 192.037 388.194 199.468 386.373 206.61C386.168 207.424 385.951 208.274 385.73 209.147C381.631 225.436 375.437 250.038 356.757 257.496C353.499 258.796 350.534 259.824 347.664 260.827C339.104 263.806 331.711 266.382 322.741 274.313C311.816 283.978 302.523 296.589 295.142 311.811C283.132 336.574 279.946 361.963 276.87 386.519C274.409 406.166 271.863 426.477 264.833 446.507L263.668 446.379L263.675 446.376Z" fill="white"></path><path d="M239.142 441.376C244.975 423.37 245.466 405.44 245.945 388.096C246.591 364.516 247.261 340.125 261.499 315.539C277.95 287.122 301.505 270.39 331.803 254.015C349.019 244.709 355.003 224.009 359.368 208.893C361.243 202.405 362.874 195.72 364.452 189.262C367.995 174.739 371.653 159.724 378.428 145.369C388.375 124.26 405.272 107.078 421.61 90.4636C434.686 77.1644 448.206 63.4116 458.097 47.7259C473.613 23.1093 476.239 -2.87026 478.78 -27.988C480.74 -47.3702 482.773 -67.4144 490.633 -86.9458L491.778 -86.7564C483.99 -67.3924 481.97 -47.4442 480.014 -28.1507C477.454 -2.87706 474.812 23.2499 459.115 48.1593C449.135 64.0036 435.548 77.8213 422.408 91.181C406.162 107.698 389.37 124.777 379.539 145.645C372.834 159.87 369.191 174.818 365.659 189.272C364.079 195.744 362.45 202.439 360.567 208.954C356.125 224.329 350.044 245.389 332.206 255.032C302.162 271.268 278.823 287.837 262.563 315.917C248.508 340.197 247.841 364.418 247.202 387.849C246.722 405.273 246.232 423.293 240.34 441.474L239.158 441.375L239.156 441.379L239.142 441.376Z" fill="white"></path><path d="M214.583 436.382C219.269 419.858 217.648 404.068 216.071 388.802C213.839 367.093 211.529 344.648 227.873 320.545C245.108 295.133 270.706 277.344 295.47 260.146C298.754 257.865 302.154 255.503 305.461 253.172C326.78 238.146 334.004 212.844 340.991 188.379C344.377 176.533 347.565 165.348 352.259 155.529C362.648 133.774 379.034 114.921 394.882 96.6845C407.661 81.9808 420.882 66.7707 430.876 50.1274C446.488 24.1285 449.982 -3.27452 453.356 -29.7759C455.982 -50.3838 458.699 -71.7062 467.052 -92.4312L468.201 -92.2417C459.907 -71.6682 457.202 -50.4418 454.584 -29.9077C451.192 -3.27382 447.681 24.267 431.908 50.5258C421.843 67.2895 408.577 82.5506 395.747 97.3086C379.975 115.459 363.661 134.224 353.359 155.792C348.725 165.502 345.542 176.631 342.18 188.423C335.114 213.152 327.817 238.716 306.012 254.077C302.703 256.413 299.298 258.774 296.014 261.054C271.382 278.16 245.916 295.857 228.86 321.018C212.805 344.697 214.989 365.929 217.304 388.408C218.889 403.783 220.523 419.68 215.775 436.421L214.578 436.371L214.576 436.375L214.583 436.382Z" fill="white"></path><path d="M190.705 431.253C194.235 416.043 190.495 402.17 186.872 388.753C181.621 369.317 176.197 349.214 194.053 325.744C208.483 306.781 228.098 291.782 247.072 277.282C258.642 268.435 270.601 259.295 281.154 249.407C299.785 231.944 307.904 210.05 315.752 188.883C319.291 179.338 322.941 169.475 327.527 160.086C338.313 137.966 354.305 118.027 369.763 98.7438C382.726 82.572 396.133 65.8509 406.393 47.938C421.909 20.8524 426.84 -7.73616 431.605 -35.3951C435.441 -57.6379 439.406 -80.6435 448.837 -102.9L449.983 -102.688C440.615 -80.568 436.662 -57.6446 432.839 -35.4745C428.05 -7.70764 423.098 21.008 407.46 48.3112C397.135 66.3317 383.688 83.1049 370.687 99.3246C355.286 118.541 339.353 138.409 328.64 160.371C324.093 169.697 320.448 179.529 316.924 189.039C309.013 210.377 300.837 232.441 281.92 250.168C271.303 260.117 259.31 269.287 247.711 278.16C228.832 292.593 209.31 307.514 195.013 326.305C177.567 349.227 182.687 368.17 188.102 388.224C191.754 401.761 195.538 415.767 191.938 431.253L190.72 431.265L190.71 431.263L190.705 431.253Z" fill="white"></path><path d="M169.269 425.281C173.565 410.403 169.254 397.188 165.084 384.412C159.414 367.025 153.546 349.05 170.13 327.303C183.315 310.024 200.942 295.138 217.985 280.744C230.839 269.891 244.135 258.659 255.327 246.555C274.299 226.028 283.821 204.225 293.892 181.138C297.262 173.431 300.734 165.455 304.614 157.474C315.402 135.278 331.427 115.261 346.923 95.9013C359.992 79.5821 373.505 62.7095 383.794 44.6171C400.075 15.9918 406.51 -14.0536 412.734 -43.1143C418.08 -68.074 423.61 -93.8783 435.337 -118.835L436.461 -118.576C424.8 -93.7644 419.288 -68.0316 413.955 -43.1488C407.706 -13.9856 401.254 16.1644 384.855 44.989C374.501 63.189 360.954 80.1106 347.843 96.4863C332.402 115.774 316.433 135.714 305.721 157.757C301.855 165.708 298.381 173.665 295.027 181.362C284.898 204.573 275.328 226.492 256.162 247.224C244.896 259.41 231.564 270.672 218.662 281.561C201.689 295.895 184.126 310.721 171.06 327.857C154.902 349.032 160.421 365.936 166.261 383.834C170.482 396.764 174.838 410.13 170.446 425.354L169.25 425.3L169.255 425.287L169.269 425.281Z" fill="white"></path><path d="M149.779 416.38C156.378 401.906 152.632 388.872 149.016 376.265C144.546 360.669 139.913 344.544 154.385 325.365C160.797 316.865 168.999 309.1 176.928 301.587C182.49 296.32 188.239 290.875 193.278 285.26C205.917 271.166 216.411 259.398 226.82 246.944C248.23 221.32 261.071 195.034 274.665 167.214C275.717 165.061 276.779 162.886 277.852 160.7C288.751 138.47 305.44 119.014 321.582 100.192C335.289 84.2081 349.463 67.6765 360.002 49.546C377.876 18.7997 383.75 -13.5668 389.425 -44.8613C394.342 -71.9585 399.424 -99.9846 412.251 -127.029L413.364 -126.753C400.618 -99.8836 395.556 -71.9471 390.656 -44.9353C384.959 -13.5234 379.063 18.9606 361.063 49.9231C350.443 68.1857 336.222 84.7726 322.466 100.816C306.399 119.557 289.778 138.933 278.968 160.982C277.897 163.163 276.842 165.335 275.784 167.486C262.143 195.399 249.26 221.766 227.726 247.545C217.302 260.019 206.798 271.799 194.141 285.908C189.056 291.577 183.281 297.045 177.693 302.334C169.814 309.797 161.667 317.509 155.342 325.901C141.286 344.531 145.63 359.669 150.231 375.701C153.903 388.496 157.694 401.728 150.908 416.622L149.781 416.376L149.783 416.372L149.779 416.38Z" fill="white"></path><path d="M131.483 406.621L130.484 406.154C138.011 394.857 135.124 385.079 132.065 374.737C131.367 372.369 130.644 369.919 130.057 367.468C126.943 354.388 125.353 338.962 137.179 323.706C141.665 317.917 146.695 312.835 151.555 307.925C158.008 301.403 164.681 294.662 169.984 286.308C176.412 276.182 185.125 262.829 195.446 249.394C218.774 219.033 234.488 194.856 247.98 168.538C259.404 146.266 277.053 127.525 294.122 109.405C308.269 94.3873 322.892 78.8617 333.892 61.4104C354.846 28.1572 358.924 -7.81458 362.87 -42.5953C366.074 -70.8693 369.388 -100.113 381.691 -127.993L382.826 -127.764C370.612 -100.08 367.313 -70.9368 364.113 -42.7516C360.15 -7.81912 356.057 28.3 334.922 61.8322C323.833 79.4188 309.154 95.0113 294.958 110.079C277.968 128.118 260.399 146.764 249.079 168.844C235.543 195.246 219.785 219.498 196.389 249.937C186.101 263.323 177.425 276.628 171.007 286.733C165.61 295.235 158.875 302.042 152.363 308.626C147.539 313.501 142.553 318.547 138.124 324.254C126.658 339.037 128.233 354.129 131.282 366.94C131.859 369.365 132.577 371.804 133.274 374.163C136.274 384.302 139.377 394.786 131.498 406.61L131.496 406.615L131.483 406.621Z" fill="white"></path><path d="M111.577 397.532L111.125 396.55C121.377 390.476 117.289 376.855 114.582 367.84C114.07 366.118 113.619 364.632 113.33 363.387C110.258 350.066 108.867 335.922 119.499 322.701C121.999 319.591 125.035 316.972 127.966 314.433C131.114 311.707 134.37 308.894 136.87 305.534C141.281 299.601 143.392 293.849 145.334 287.988C149.808 274.51 155.404 263.47 163.498 252.172C169.697 243.525 176.727 235.32 183.537 227.39C186.19 224.301 188.927 221.109 191.588 217.922C202.716 204.594 210.639 190.328 217.809 176.86C229.723 154.456 248.448 136.431 266.557 119.005C281.975 104.168 297.921 88.8217 309.575 70.8475C326.321 45.0134 328.678 14.6958 330.765 -12.0482C330.909 -13.9392 331.056 -15.8151 331.207 -17.676C331.698 -23.7407 332.107 -29.9469 332.504 -35.9438C334.445 -65.3671 336.465 -95.7957 348.43 -125.729L349.581 -125.548C337.688 -95.8057 335.683 -65.4774 333.745 -36.1524C333.344 -30.1471 332.933 -23.9366 332.445 -17.8665C332.296 -16.0098 332.151 -14.1286 332.002 -12.2387C329.908 14.6592 327.54 45.1488 310.586 71.2981C298.832 89.433 282.815 104.843 267.329 119.749C249.316 137.08 230.689 155.004 218.894 177.195C211.689 190.741 203.721 205.081 192.488 218.535C189.825 221.726 187.079 224.926 184.424 228.02C177.642 235.923 170.633 244.095 164.48 252.686C156.484 263.841 150.947 274.763 146.523 288.097C144.536 294.08 142.382 299.959 137.828 306.076C135.216 309.59 131.891 312.462 128.671 315.242C125.796 317.728 122.817 320.303 120.417 323.286C110.173 336.03 111.545 349.849 114.549 362.881C114.824 364.1 115.272 365.571 115.787 367.274C118.43 376.086 122.861 390.847 111.577 397.532Z" fill="white"></path><path d="M91.0575 391.156L90.9454 390.017C93.7127 389.153 95.7548 387.72 97.1708 385.629C101.181 379.724 99.0594 369.969 97.7994 364.142C97.5989 363.219 97.4146 362.374 97.2725 361.644C95.0985 350.231 92.3957 336.026 101.845 323.354C104.109 320.318 107.006 317.913 109.815 315.587C112.957 312.98 115.935 310.515 118.075 307.233C121.763 301.597 122.181 296.479 122.33 290.851C122.68 277.687 124.45 268.068 132.795 254.947C140.934 242.146 151.157 231.869 161.975 220.993L162.578 220.388C174.244 208.657 182.01 196.42 190.064 181.667C202.39 159.103 221.813 141.716 240.602 124.899C256.24 110.903 272.4 96.4302 284.4 79.0477C301.754 53.9025 302.898 24.184 303.908 -2.03354C303.995 -4.23427 304.075 -6.4083 304.166 -8.56092C304.501 -16.3669 304.642 -24.4016 304.778 -32.1735C305.311 -62.3443 305.853 -93.5409 317.456 -124.292L318.616 -124.133C307.096 -93.5881 306.552 -62.5006 306.027 -32.4366C305.891 -24.6551 305.748 -16.616 305.412 -8.79618C305.321 -6.64356 305.237 -4.47063 305.147 -2.27528C304.133 24.1207 302.979 54.0346 285.383 79.5343C273.268 97.0881 257.027 111.623 241.321 125.687C222.64 142.406 203.325 159.696 191.133 182.013C183.007 196.887 175.177 209.231 163.372 221.104L162.769 221.709C152.018 232.52 141.861 242.733 133.817 255.381C125.649 268.222 123.914 277.661 123.574 290.596C123.422 296.427 122.978 301.737 119.086 307.683C116.803 311.172 113.593 313.835 110.486 316.412C107.76 318.672 104.943 321.015 102.802 323.887C93.7345 336.058 96.3829 349.981 98.5046 361.165C98.6411 361.885 98.8246 362.719 99.0222 363.637C100.328 369.649 102.508 379.701 98.1684 386.095C96.5499 388.479 94.1591 390.181 91.0634 391.143L91.0555 391.16L91.0575 391.156Z" fill="white"></path><path d="M68.0431 389.203L67.635 388.194C81.724 380.437 80.6958 367.472 79.6019 353.746C78.7449 342.979 77.8602 331.839 84.1957 322.4C86.4295 319.067 89.5526 316.417 92.5717 313.856C96.4877 310.53 100.187 307.391 102.009 302.921C103.701 298.78 103.023 293.945 102.474 290.065L102.413 289.626C100.556 276.304 99.9064 266.538 107.592 252.638C115.53 238.292 126.63 227.407 137.316 217.491C149.206 206.463 158.073 194.77 166.977 178.378C179.263 155.765 198.89 138.554 217.874 121.912C234.079 107.707 250.847 93.0093 262.937 75.029C279.592 50.2749 280.294 20.9109 280.915 -5.01001C280.974 -7.6655 281.041 -10.291 281.118 -12.8716C281.348 -20.5289 281.387 -28.4331 281.43 -36.0819C281.578 -66.1962 281.732 -97.3417 293.26 -127.954L294.421 -127.794C282.981 -97.3975 282.826 -66.3652 282.674 -36.3556C282.636 -28.7058 282.595 -20.7973 282.36 -13.1176C282.28 -10.5424 282.22 -7.92006 282.151 -5.26676C281.528 20.8187 280.814 50.3922 263.931 75.4943C251.712 93.662 234.862 108.425 218.575 122.706C199.699 139.25 180.179 156.363 168.039 178.718C159.043 195.277 150.08 207.099 138.05 218.26C127.461 228.089 116.461 238.861 108.646 252.995C101.166 266.528 101.808 276.117 103.633 289.21L103.694 289.649C104.259 293.665 104.963 298.661 103.14 303.121C101.172 307.944 97.1437 311.366 93.2469 314.672C90.3211 317.156 87.2894 319.733 85.1828 322.868C79.1238 331.9 79.9942 342.82 80.831 353.379C81.9572 367.56 83.0267 380.95 68.0336 389.201L68.0316 389.205L68.0431 389.203Z" fill="white"></path><path d="M49.3575 383.931L48.7351 383.065C61.8824 372.902 61.6883 360.26 61.4789 346.874C61.317 336.354 61.1453 325.479 67.6433 315.36C69.4649 312.528 71.8274 310.122 74.1151 307.789C76.8563 305 79.4354 302.372 81.153 299.081C84.1819 293.264 83.9117 287.996 83.6398 282.411C83 269.534 84.0999 259.462 91.6274 246.12C99.8684 231.501 111.358 218.673 122.471 206.266L124.041 204.511C135.728 191.455 145.337 177.795 154.288 161.532C165.907 140.424 183.248 123.173 200.018 106.487C213.923 92.6556 228.301 78.3494 239.342 61.9216C255.82 37.3994 257.925 8.58983 259.782 -16.8334C259.94 -19.0063 260.094 -21.161 260.262 -23.2986C260.826 -30.6441 261.262 -38.1654 261.678 -45.4371C263.349 -74.6111 265.071 -104.777 275.963 -134.562L277.122 -134.415C266.303 -104.811 264.575 -74.7363 262.915 -45.654C262.497 -38.3782 262.069 -30.8504 261.503 -23.491C261.338 -21.3577 261.178 -19.204 261.02 -17.0312C259.147 8.55323 257.031 37.5484 240.337 62.3832C229.208 78.9462 214.773 93.3097 200.81 107.199C184.121 123.8 166.858 140.969 155.36 161.87C146.347 178.246 136.665 191.998 124.898 205.148L123.329 206.904C111.765 219.814 100.844 232.006 92.6936 246.471C85.2976 259.594 84.2464 269.102 84.8889 282.065C85.1729 287.818 85.441 293.25 82.25 299.388C80.4285 302.894 77.6298 305.74 74.927 308.491C72.696 310.757 70.3977 313.102 68.6706 315.797C62.4091 325.546 62.5737 336.232 62.7333 346.562C62.9497 360.298 63.1491 373.271 49.3775 383.921L49.3678 383.942L49.3575 383.931Z" fill="white"></path><path d="M36.5518 373.707L35.774 372.984C47.0129 361.662 47.7401 349.619 48.5059 336.876C49.1228 326.571 49.7674 315.919 56.367 305.538C57.6294 303.548 58.816 301.771 59.9637 300.046C65.071 292.391 68.7692 286.856 69.4746 276.676C70.4356 262.816 72.2205 253.41 79.2703 240.449C88.9754 222.626 101.297 205.788 113.226 189.497C125.96 172.101 139.129 154.12 149.105 134.912C158.835 116.178 172.249 99.3323 185.22 83.0452C196.258 69.1887 207.662 54.8675 216.732 39.4637C235.792 7.08941 240.294 -27.9358 244.652 -61.8002C248.077 -88.4246 251.621 -115.952 262.176 -142.187L263.302 -141.994C252.809 -115.919 249.28 -88.472 245.864 -61.935C241.492 -27.9374 236.966 7.22303 217.753 39.8533C208.633 55.3581 197.187 69.7259 186.12 83.6228C173.197 99.8505 159.832 116.633 150.172 135.223C140.141 154.531 126.937 172.565 114.165 190.012C102.268 206.255 89.975 223.053 80.3216 240.784C73.3916 253.515 71.6411 262.788 70.6889 276.457C69.9606 286.985 66.1728 292.649 60.9376 300.495C59.7958 302.207 58.611 303.98 57.3584 305.949C50.9583 316.015 50.327 326.5 49.7205 336.633C48.9745 349.071 48.2007 361.935 36.538 373.68L36.5416 373.695L36.5518 373.707Z" fill="white"></path><path d="M25.9355 361.255L25.0412 360.682C34.0761 349.024 35.7309 337.693 37.4851 325.696C38.79 316.765 40.1391 307.53 44.8104 298.129C46.0307 295.672 47.2573 293.396 48.4496 291.196C52.1139 284.4 55.2815 278.533 56.5571 270.59C58.4911 258.532 61.1905 247.791 68.0738 234.535C78.6708 214.134 91.7223 194.324 104.344 175.167C119.069 152.82 134.294 129.708 145.655 105.593C153.215 89.5503 162.094 73.7076 170.683 58.3918C178.645 44.1903 186.876 29.5032 194.025 14.7194C207.552 -13.2709 215.27 -42.2518 222.736 -70.2834C229.739 -96.5711 236.983 -123.764 249.004 -150.083L250.091 -149.826C238.115 -123.608 230.895 -96.4804 223.901 -70.2469C216.417 -42.1538 208.68 -13.107 195.094 15.0053C187.93 29.8326 179.686 44.5398 171.715 58.7583C163.136 74.0529 154.273 89.8712 146.732 105.862C135.313 130.081 120.065 153.234 105.315 175.627C92.7172 194.752 79.6854 214.529 69.1272 234.855C62.3309 247.939 59.6643 258.561 57.7503 270.483C56.4398 278.653 53.2174 284.619 49.4889 291.536C48.3068 293.724 47.086 295.988 45.8798 298.424C41.3171 307.616 39.9775 316.751 38.6886 325.578C36.9839 337.225 35.2284 349.26 25.9439 361.248L25.942 361.252L25.9355 361.255Z" fill="white"></path></svg>